<svg display="none" version="1.1" xmlns="http://www.w3.org/2000/svg" xmlns:xlink="http://www.w3.org/1999/xlink">
	<defs>
		<symbol id="icon-loading" viewBox="0 0 1024 1024">
			<title>loading</title>
			<path class="path1" d="M1024 512c-1.278-66.862-15.784-133.516-42.576-194.462-26.704-61-65.462-116.258-113.042-161.92-47.552-45.696-103.944-81.82-164.984-105.652-61.004-23.924-126.596-35.352-191.398-33.966-64.81 1.282-129.332 15.374-188.334 41.356-59.048 25.896-112.542 63.47-156.734 109.576-44.224 46.082-79.16 100.708-102.186 159.798-23.114 59.062-34.128 122.52-32.746 185.27 1.286 62.76 14.964 125.148 40.134 182.206 25.088 57.1 61.476 108.828 106.11 151.548 44.61 42.754 97.472 76.504 154.614 98.72 57.118 22.304 118.446 32.902 179.142 31.526 60.708-1.29 120.962-14.554 176.076-38.914 55.15-24.282 105.116-59.48 146.366-102.644 41.282-43.14 73.844-94.236 95.254-149.43 13.034-33.458 21.88-68.4 26.542-103.798 1.246 0.072 2.498 0.12 3.762 0.12 35.346 0 64-28.652 64-64 0-1.796-0.094-3.572-0.238-5.332h0.238zM922.306 681.948c-23.472 53.202-57.484 101.4-99.178 141.18-41.67 39.81-91 71.186-144.244 91.79-53.228 20.678-110.29 30.452-166.884 29.082-56.604-1.298-112.596-13.736-163.82-36.474-51.25-22.666-97.684-55.49-135.994-95.712-38.338-40.198-68.528-87.764-88.322-139.058-19.87-51.284-29.228-106.214-27.864-160.756 1.302-54.552 13.328-108.412 35.254-157.69 21.858-49.3 53.498-93.97 92.246-130.81 38.73-36.868 84.53-65.87 133.874-84.856 49.338-19.060 102.136-28.006 154.626-26.644 52.5 1.306 104.228 12.918 151.562 34.034 47.352 21.050 90.256 51.502 125.624 88.782 35.396 37.258 63.21 81.294 81.39 128.688 18.248 47.392 26.782 98.058 25.424 148.496h0.238c-0.144 1.76-0.238 3.536-0.238 5.332 0 33.012 24.992 60.174 57.086 63.624-6.224 34.822-16.53 68.818-30.78 100.992z"></path>
		</symbol>
		<symbol id="icon-phone" viewBox="0 0 1024 1024">
			<title>phone</title>
			<path d="M312.038806 862.823134c-30.085202 0-54.562686-24.476461-54.562686-54.561663L257.476119 186.766684c0-30.082132 24.476461-54.556547 54.562686-54.556547L711.948915 132.210138c30.092365 0 54.573943 24.474414 54.573943 54.556547l0 621.49888c0 30.083156-24.481577 54.55757-54.573943 54.55757L312.038806 862.823134zM283.303344 808.261471c0 15.84385 12.890588 28.734438 28.735461 28.734438L711.948915 836.995909c15.851013 0 28.746718-12.890588 28.746718-28.734438L740.695632 701.646268 283.303344 701.646268 283.303344 808.261471zM283.303344 675.819043l457.392288 0 0-397.810285L283.303344 278.008758 283.303344 675.819043zM312.038806 158.037363c-15.84385 0-28.735461 12.888542-28.735461 28.729322l0 65.414849 457.392288 0L740.695632 186.766684c0-15.84078-12.895705-28.729322-28.746718-28.729322L312.038806 158.037363zM511.995907 804.281833c-17.238616 0-31.264051-14.010085-31.264051-31.232328 0-17.23964 14.025435-31.264051 31.264051-31.264051 17.229406 0 31.246655 14.024411 31.246655 31.264051C543.243585 790.271748 529.225313 804.281833 511.995907 804.281833z" ></path>
		</symbol>
		<symbol id="icon-edit" viewBox="0 0 1024 1024">
			<title>edit</title>
			<path d="M811.3664 388.5568l-386.7136 388.608c-1.28 1.28-3.1744 0.9728-4.6592 1.9456-3.1232 2.2528-6.656 3.6864-10.5984 4.4032-1.1264 0.1024-1.9456 0.6656-3.072 0.6144-0.4096 0-0.768 0.2048-1.1776 0.2048l-171.776 35.2768c-7.68 0-14.3872-3.4816-19.1488-8.8576-5.2736-4.7616-8.7552-11.4688-8.8064-19.2l35.1232-172.7488c-0.0512-7.936 3.7376-14.848 9.3696-19.6096l280.064-281.4464c0 0 0-0.0512 0.0512-0.0512 0-0.0512 0.0512-0.0512 0.0512-0.0512l105.4208-105.9328c9.6768-9.728 25.4464-9.728 35.1232 0.0512l140.7488 141.4656C821.0432 363.008 821.0432 378.8288 811.3664 388.5568zM263.3216 761.4464l133.9904-27.4944 255.8464-257.1264-105.5232-106.0864-257.536 258.7648L263.3216 761.4464zM653.056 264.7552l-70.2976 70.656 105.5232 106.0864 70.3488-70.656L653.056 264.7552z" ></path>
		</symbol>
		<symbol id="icon-lock" viewBox="0 0 1024 1024">
			<title>lock</title>
			<path d="M713.874777 507.329631c-0.067538-13.537318-0.153496-33.31271-0.153496-46.242184L713.721281 255.824503c0-53.692876-21.041222-104.303554-59.246359-142.509714-38.207184-38.20616-88.817861-59.247382-142.526087-59.247382-53.688783 0-104.295368 21.040199-142.499481 59.243289-38.20309 38.20309-59.243289 88.810698-59.243289 142.499481l0 205.278293c0 12.857842-0.156566 32.206516-0.287549 46.133713-44.944632 49.900503-69.536726 113.774253-69.536726 181.434236 0 72.511477 28.237111 140.683113 79.510892 191.956893s119.445416 79.510892 191.956893 79.510892 140.683113-28.238135 191.95587-79.510892 79.510892-119.445416 79.510892-191.956893C783.316336 621.044532 758.756987 557.213761 713.874777 507.329631zM354.208231 255.810177c0-86.977957 70.761624-157.739581 157.755953-157.739581 86.986143 0 157.75493 70.768787 157.75493 157.75493l0 205.262944c0 2.067079 0.002047 4.311189 0.00614 6.671956-45.74588-32.843012-100.444667-50.571792-157.87568-50.571792-57.33687 0-111.950721 17.670451-157.651576 50.409087 0.007163-2.297322 0.011256-4.483104 0.011256-6.509251L354.209254 255.810177zM511.848551 916.121014c-125.424594 0-227.465618-102.041024-227.465618-227.465618s102.041024-227.465618 227.465618-227.465618c125.423571 0 227.464595 102.040001 227.464595 227.465618S637.273145 916.121014 511.848551 916.121014zM492.569462 673.804153l46.337351 0 0 158.705582-46.337351 0 0-158.705582Z"></path>
		</symbol>
		<symbol id="icon-user" viewBox="0 0 1024 1024">
			<title>user</title>
			<path d="M1024 960.064c0 0.064 0 0.064 0 0.128 0 26.496-21.504 48-48 48L48 1008.192c-26.496 0-48-21.504-48-48 0-0.064 0-0.064 0-0.128L0 960.064c0 0 0-174.912 127.808-238.528 80.896-40.256 49.728-7.552 148.992-48.768C376.128 631.68 399.616 617.344 399.616 617.344l0.96-94.784c0 0-37.184-28.416-48.768-117.632C328.576 411.648 320.832 377.6 319.488 355.968c-1.216-20.928-13.44-86.336 14.912-80.448C328.576 231.872 324.416 192.512 326.464 171.648c7.104-73.216 77.632-149.696 186.304-155.328 127.808 5.568 178.432 82.048 185.472 155.264 2.048 20.864-2.496 60.288-8.32 103.872 28.416-5.824 16.064 59.456 14.656 80.384-1.28 21.696-9.088 55.616-32.32 48.896-11.584 89.152-48.768 117.376-48.768 117.376l0.896 94.272c0 0 23.488 13.44 122.816 54.528 99.264 41.152 68.16 10.368 148.992 50.624C1024 785.152 1024 960.064 1024 960.064L1024 960.064z" ></path>
		</symbol>
		<symbol id="icon-user-o" viewBox="0 0 1224 1224">
			<title>user-empty</title>
			<path d="M709.094655 618.188809c74.185236-58.42063 121.977741-148.836318 121.977741-250.597755 0-176.21791-142.854501-319.072411-319.072411-319.072411S192.912978 191.373144 192.912978 367.591053c0 101.761437 47.807101 192.177125 121.977741 250.597755C181.900499 685.973816 88.287129 819.877485 77.938755 976.748753l58.111687 0c11.185195-146.889005 106.678982-270.011294 238.107458-321.709373 41.753521 20.039939 88.406343 31.642329 137.842084 31.642329 49.450337 0 96.055722-11.606039 137.842084-31.642329C781.270544 706.73746 876.765547 829.854884 887.964122 976.748753l58.097091 0C935.746896 819.877485 842.100686 685.973816 709.094655 618.188809L709.094655 618.188809zM512.01458 628.664894c-144.204606 0-261.070192-116.85099-261.070192-261.060462 0-144.20339 116.865586-261.05438 261.070192-261.05438 144.190011 0 261.041001 116.85099 261.041001 261.05438C773.055581 511.813904 656.189995 628.664894 512.01458 628.664894L512.01458 628.664894zM512.01458 628.664894" ></path>
		</symbol>
		<symbol id="icon-multi-user" viewBox="0 0 1324 1324">
			<title>multi-user</title>
			<path d="M523.52 598.4C593.28 552.32 640 473.6 640 384c0-141.44-114.56-256-256-256C242.56 128 128 242.56 128 384c0 89.6 46.72 168.32 116.48 214.4C101.76 645.12 0 765.44 0 928 0 945.92 14.08 960 32 960S64 945.92 64 928C64 751.36 207.36 640 384 640c176.64 0 320 111.36 320 288 0 17.92 14.08 32 32 32 17.92 0 32-14.08 32-32C768 765.44 666.24 645.12 523.52 598.4zM384 576C278.4 576 192 489.6 192 384s86.4-192 192-192c105.6 0 192 86.4 192 192S489.6 576 384 576zM804.48 602.24C878.08 556.8 928 476.8 928 384c0-141.44-114.56-256-256-256C654.08 128 640 142.08 640 160 640 177.92 654.08 192 672 192c105.6 0 192 86.4 192 192 0 71.04-38.4 132.48-96 165.76-56.32 34.56-71.68 83.2 0 109.44 111.36 39.68 192 144 192 269.44 0 17.92 14.08 32 32 32 17.92 0 32-14.08 32-32C1024 780.8 933.12 654.72 804.48 602.24z"></path>
		</symbol>

		<symbol id="icon-email" viewBox="10 0 1224 1024">
			<title>email</title>
			<path d="M901.6832 213.6832 122.3168 213.6832c-38.8352 0-70.4 31.5648-70.4 70.4l0 458.2656c0 38.8352 31.5648 70.4 70.4 70.4l779.3408 0c38.8352 0 70.4-31.5648 70.4-70.4L972.0576 284.0832C972.0832 245.248 940.4928 213.6832 901.6832 213.6832zM933.6832 284.0832l0 458.2656c0 6.8096-2.6112 12.7744-6.2464 17.9712l-258.0224-240.512 262.4512-244.6336C932.736 278.0672 933.6832 280.9344 933.6832 284.0832zM90.3168 742.3488 90.3168 284.0832c0-3.1488 0.9472-6.016 1.792-8.8832l262.4768 244.6336L96.5632 760.32C92.928 755.1232 90.3168 749.1584 90.3168 742.3488zM512 614.0416 123.648 252.0832 900.352 252.0832 512 614.0416zM382.7456 546.0736 512 666.5472l129.2544-120.4736 244.8896 228.2752L137.856 774.3488 382.7456 546.0736z" ></path>
		</symbol>
		<symbol id="icon-card" viewBox="0 0 1024 1024">
			<title>card</title>
			<path d="M862.709 278.064c17.039 0 31.048 5.488 42.025 16.466 10.977 10.895 16.466 24.903 16.466 42.025l0 468.09c0 17.122-5.489 31.048-16.466 42.025-10.977 10.978-24.986 16.466-42.025 16.466L160.491 863.136c-17.039 0-31.048-5.488-42.025-16.466C107.489 835.775 102 821.767 102 804.645l0-468.09c0-17.04 5.489-31.13 16.466-42.025 10.977-10.978 24.986-16.466 42.025-16.466L862.709 278.064 862.709 278.064zM880 342.927c0-18.966-9.484-28.45-28.45-28.45L566.898 314.477 453.021 314.477 168.449 314.477c-18.966 0-28.449 9.563-28.449 28.45l0 455.347c0 18.966 9.483 28.45 28.449 28.45L851.47 826.724c18.966 0 28.45-9.484 28.45-28.45L879.92 342.927 880 342.927 880 342.927zM453.109 702.245c0-28.016-10.076-52.101-30.146-72.253-20.071-20.152-44.237-30.147-72.254-30.147-28.017 0-52.101 10.077-72.253 30.147-20.153 20.07-30.147 44.237-30.147 72.253 0 9.831-4.915 14.664-14.664 14.664-9.748 0-14.581-4.833-14.581-14.664 0-36.536 12.779-67.665 38.42-93.225 25.559-25.64 56.607-38.42 93.225-38.42 36.536 0 67.666 12.78 93.225 38.42 25.559 25.56 38.421 56.689 38.421 93.225 0 9.831-4.916 14.664-14.664 14.664C457.942 716.909 453.109 712.076 453.109 702.245L453.109 702.245zM401.909 548.645c-14.664 14.664-31.703 21.955-51.2 21.955-19.497 0-36.618-7.291-51.2-21.955-14.582-14.663-21.954-31.703-21.954-51.2 0-19.496 7.29-36.536 21.954-51.2 14.664-14.663 31.703-21.954 51.2-21.954 19.497 0 36.536 7.291 51.2 21.955 14.664 14.663 21.955 31.784 21.955 51.199C423.864 516.942 416.491 534.064 401.909 548.645L401.909 548.645zM381.757 466.398c-8.52-8.52-18.842-12.862-31.048-12.862-12.206 0-22.528 4.342-31.048 12.78-8.601 8.601-12.861 19.005-12.861 31.129 0 12.207 4.26 22.61 12.78 31.048 8.519 8.602 18.923 12.862 31.129 12.862 12.206 0 22.528-4.26 31.048-12.78 8.519-8.52 12.779-18.923 12.779-31.048C394.536 485.321 390.276 474.917 381.757 466.398L381.757 466.398zM789.555 453.536l-204.8 0c-9.749 0-14.664-4.833-14.664-14.663 0-9.749 4.915-14.664 14.664-14.664l204.8 0c9.748 0 14.663 4.915 14.663 14.664C804.136 448.703 799.303 453.536 789.555 453.536L789.555 453.536zM789.555 541.355l-204.8 0c-9.749 0-14.664-4.834-14.664-14.664 0-9.749 4.915-14.664 14.664-14.664l204.8 0c9.748 0 14.663 4.915 14.663 14.664C804.136 536.521 799.303 541.355 789.555 541.355L789.555 541.355zM789.555 629.091l-204.8 0c-9.749 0-14.664-4.833-14.664-14.664 0-9.748 4.915-14.663 14.664-14.663l204.8 0c9.748 0 14.663 4.915 14.663 14.663C804.136 624.258 799.303 629.091 789.555 629.091L789.555 629.091zM789.555 716.909l-204.8 0c-9.749 0-14.664-4.833-14.664-14.664 0-9.748 4.915-14.663 14.664-14.663l204.8 0c9.748 0 14.663 4.915 14.663 14.663C804.136 712.076 799.303 716.909 789.555 716.909L789.555 716.909z" ></path>
		</symbol>
		<symbol id="icon-position" viewBox="0 0 1124 1124">
			<title>position</title>
			<path d="M816.8428 332.8973c0-157.1369-129.324-284.5409-288.9861-284.5409-159.5924 0-288.9851 127.404-288.9851 284.5409 0 51.9004 14.3647 100.3704 38.9734 142.2643h-0.310272l245.7211 488.8525c0.8407 1.6742 2.5733 2.8211 4.5742 2.8211 1.9999 0 3.7335-1.1459 4.5742-2.8201L778.2502 475.1616h-0.35328C802.5907 433.2667 816.8428 384.7967 816.8428 332.8973M527.8843 475.1329c-79.7809 0-144.4915-63.7092-144.4915-142.2776 0-78.5254 64.7107-142.2633 144.4915-142.2633 79.8669 0 144.4925 63.7379 144.4925 142.2633C672.3779 411.4237 607.7512 475.1329 527.8843 475.1329"></path>
		</symbol>
		<symbol id="icon-location" viewBox="0 0 1224 1224">
			<title>location</title>
			<path d="M512 400C565.019336 400 608 357.019336 608 304 608 250.980664 565.019336 208 512 208 458.980664 208 416 250.980664 416 304 416 357.019336 458.980664 400 512 400L512 400ZM512 368C476.653776 368 448 339.346224 448 304 448 268.653776 476.653776 240 512 240 547.346224 240 576 268.653776 576 304 576 339.346224 547.346224 368 512 368L512 368ZM291.731773 399.44245C304.285374 428.377419 333.637643 473.752552 375.920214 531.860654 381.548453 539.59543 387.370286 547.504354 393.36845 555.56852 416.615826 586.823206 441.505222 619.080757 466.392477 650.532445 475.101682 661.53885 483.189901 671.660086 490.450926 680.66897 494.813848 686.082125 497.936258 689.927365 499.611778 691.977246L511.948272 707.070091 524.346579 692.027982C526.037282 689.976755 529.185984 686.128768 533.584755 680.708616 540.90431 671.689482 549.057437 661.548106 557.836379 650.50881 582.922888 618.96317 608.011626 586.526882 631.446341 554.985048 638.233766 545.849547 644.796139 536.903003 651.109106 528.171507 693.456718 469.600309 722.589139 423.631317 734.635528 393.788213 746.055669 365.496541 752 335.147886 752 304 752 171.45166 644.548339 64 512 64 379.451661 64 272 171.45166 272 304 272 337.24812 278.773714 369.575242 291.731773 399.44245L291.731773 399.44245ZM321.087955 386.706101C309.865802 360.840005 304 332.84584 304 304 304 189.124772 397.124773 96 512 96 626.875227 96 720 189.124772 720 304 720 331.025534 714.851882 357.309139 704.961843 381.810211 694.205739 408.456834 666.018477 452.934429 625.177082 509.422371 618.947688 518.038277 612.466974 526.873493 605.759955 535.90077 582.555794 567.132291 557.674306 599.300635 532.790587 630.591272 524.079952 641.544674 515.992755 651.604042 508.737661 660.543747 504.391642 665.898901 501.294067 669.684403 499.653421 671.674899L524.388222 671.725634C522.757696 669.730798 519.681269 665.942186 515.365821 660.587933 508.162894 651.651138 500.134139 641.604307 491.486602 630.675837 466.783166 599.456454 442.081874 567.442693 419.044605 536.470482 413.111541 528.493838 407.355797 520.674696 401.79508 513.032714 360.89084 456.818824 332.39469 412.76715 321.087955 386.706101ZM168.011593 373.182957 71.216478 436.756733C66.702991 439.721133 63.989268 444.762181 64.000032 450.162098L64.977414 940.489794C64.997975 950.804918 74.630169 958.405466 84.667263 956.026613L360.740534 890.595534 353.414232 890.608109 648.94941 959.581285C651.355157 960.142747 653.858242 960.139512 656.26253 959.57183L947.676698 890.765408C954.910816 889.057346 960.015923 882.592235 959.999963 875.159222L958.913982 369.403845C958.890875 358.64241 948.464019 350.971838 938.183634 354.153454L827.893789 388.286408C819.452256 390.898928 814.726909 399.860008 817.339429 408.301539 819.951949 416.743072 828.913027 421.468419 837.35456 418.855899L947.644406 384.722946 926.914058 369.472557 928.000037 875.227934 940.323302 859.621747 648.909133 928.42817 656.222253 928.418715 360.687077 859.445539C358.276872 858.883035 355.769032 858.887339 353.360773 859.458112L77.287501 924.889189 96.97735 940.426008 95.999968 450.09831 88.783522 463.503675 185.578638 399.929899C192.964602 395.078894 195.019592 385.15887 190.168586 377.772906 185.317581 370.386942 175.397557 368.331952 168.011593 373.182957Z" ></path>
		</symbol>
		<symbol id="icon-down" viewBox="0 0 1224 1224">
			<title>down</title>
			<path d="M99.2 264.32 56.32 307.2 512 762.88 967.68 307.2 924.8 264.32 512 677.12 99.2 264.32z" ></path>
		</symbol>
		<symbol id="icon-down-o" viewBox="0 0 1224 1224">
			<title>down-o</title>
			<path d="M941.474448 256.873392c29.000498 34.887578 28.486798 87.117127-3.417843 120.209826L574.784952 753.764276c-33.447786 34.659381-87.654362 34.659381-121.090892 0L90.433662 377.084241c-31.927153-33.093722-32.441876-85.310991-3.429099-120.198569L941.474448 256.873392z" p-id="2920"></path>
		</symbol>
		<symbol id="icon-text" viewBox="0 0 1224 1224">
			<title>text</title>
			<path d="M846.57866 63.83998 177.420317 63.83998c-25.184589 0-45.675272 13.700023-45.675272 38.884612l0 857.434403 27.161616 0 0-15.437597c50.130747-60.131519 103.233176-110.818945 116.985388-111.482047 11.126408 0.320295 42.571584 41.194214 57.676607 60.821227 27.254737 35.438117 41.020252 52.492538 55.993269 52.492538 13.328563 0 25.755594-13.766538 60.714803-56.338123 15.569604-18.939351 40.993646-49.892317 51.603285-56.231699 6.511297 5.118578 19.442818 23.102161 29.137621 36.551474 26.883277 37.292348 54.680367 76.044954 85.064374 76.044954 0.053212 0 0.092098 0 0.092098 0 27.891234 0 60.768015-32.517601 104.161315-78.379115 12.599969-13.288654 29.389354-31.087019 36.100196-36.048007 15.609513 10.637268 66.151629 64.162322 108.657722 112.729457l0 15.277962 27.160593 0L892.253932 102.724593C892.253932 77.540004 871.763249 63.83998 846.57866 63.83998zM865.093339 903.847479c-90.979084-102.091166-103.604636-100.659561-110.435205-99.730399-12.160971 1.616824-25.356504 15.09172-54.05615 45.434795-24.721031 26.126031-66.071811 69.866231-84.373643 69.866231L616.187409 919.418107c-16.538675 0-45.715181-40.450271-63.141062-64.614623-22.997784-31.936363-34.681894-47.187719-49.070602-48.380894-16.842597-1.459235-34.772968 18.567891-74.692143 67.134003-12.758582 15.542998-31.365358 38.778188-39.98569 45.727461-7.692193-6.154163-22.824845-24.641213-34.202986-39.441291-32.864502-42.73122-56.087413-69.069075-78.432327-69.069075l-0.557702 0c-27.227108 0-80.739882 53.737902-117.197212 94.718245L158.907685 102.724593c0-10.211573 8.30106-11.724019 18.513656-11.724019l669.158343 0c10.211573 0 18.514679 1.512447 18.514679 11.724019L865.094362 903.847479zM294.711673 253.967202l434.57563 0 0-27.160593L294.711673 226.806609 294.711673 253.967202zM294.711673 430.513104l230.868111 0 0-27.160593-230.868111 0L294.711673 430.513104zM294.711673 539.1565l230.868111 0 0-27.160593-230.868111 0L294.711673 539.1565zM294.711673 661.387355l230.868111 0L525.579785 634.227786l-230.868111 0L294.711673 661.387355zM634.223181 430.513104l95.063099 0 0-27.160593-95.063099 0L634.223181 430.513104zM634.223181 539.1565l95.063099 0 0-27.160593-95.063099 0L634.223181 539.1565zM634.223181 661.387355l95.063099 0L729.28628 634.227786l-95.063099 0L634.223181 661.387355z" ></path>
		</symbol>

		<symbol id="icon-text-a" viewBox="0 0 1124 1124">
			<title>text-a</title>
			<path d="M796.949333 149.333333 227.050667 149.333333C184.192 149.333333 149.333333 184.192 149.333333 227.050667l0 591.232C149.333333 861.141333 184.192 896 227.050667 896l569.898667 0C839.808 896 874.666667 861.141333 874.666667 818.282667L874.666667 227.050667C874.666667 184.192 839.808 149.333333 796.949333 149.333333zM832 832c0 14.272-7.061333 21.333333-21.333333 21.333333L213.333333 853.333333c-14.293333 0-21.333333-7.061333-21.333333-21.333333L192 213.333333c0-14.272 7.061333-21.333333 21.333333-21.333333 0 0 597.568 1.472 597.333333 0 14.122667-0.981333 21.312 6.869333 21.333333 21.333333L832 832zM256 341.333333l490.666667 0 0-42.666667L256 298.666667 256 341.333333zM362.666667 469.333333l384 0 0-42.666667L362.666667 426.666667 362.666667 469.333333zM405.333333 597.333333l341.333333 0 0-42.666667L405.333333 554.666667 405.333333 597.333333zM405.333333 725.333333l341.333333 0 0-42.666667L405.333333 682.666667 405.333333 725.333333z" ></path>
		</symbol>
		<symbol id="icon-bill" viewBox="0 0 1024 1024">
			<title>bill</title>
			<path d="M945.386036 460.005812 607.34195 798.013059l-17.309224 17.379832L459.995067 945.399851c-19.153222 19.147082-50.197262 19.110243-69.347414 0l-34.657334-34.694173-34.653241-34.692127-34.69315-34.619472c28.726252-28.720112 28.726252-75.347059 0-104.036471-28.727275-28.727275-75.277474-28.727275-104.003725 0l-34.69008-34.657334-34.657334-34.69008-34.653241-34.689057c-19.186991-19.154245-19.150152-50.161447 0-69.313645l130.002866-129.999796 17.307178-17.383926L564.032562 78.615499c19.150152-19.150152 50.160423-19.150152 69.309552 0l52.002374 52.003398 17.344017 17.307178 34.657334 34.69315c-28.727275 28.727275-28.727275 75.274404 0 104.000656 28.725228 28.727275 75.31329 28.727275 104.039541 0l34.652218 34.69315 52.001351 52.000328 17.346063 17.310248C964.499349 409.772734 964.536188 440.85566 945.386036 460.005812L945.386036 460.005812 945.386036 460.005812zM834.056462 348.675214c-43.973514 17.197684-95.827509 8.137331-131.330094-27.363208-35.57524-35.540448-44.633546-87.430258-27.400047-131.403772l-59.289338-59.290361c-9.576099-9.579169-25.117051-9.579169-34.69315 0L269.297864 442.659749l26.037003 26.003234c4.753257 4.750187 4.790096 12.55699 0 17.344017L277.954011 503.316224c-4.790096 4.786003-12.523221 4.786003-17.310248 0l-26.000164-26.004257L130.639874 581.318762c-9.573029 9.573029-9.573029 25.112957 0 34.69008l59.293431 59.289338c43.973514-17.160845 95.826486-8.173147 131.403772 27.400047 35.499515 35.505655 44.523029 87.35965 27.324322 131.333164l59.33027 59.367109c9.53926 9.537214 25.079188 9.573029 34.656311 0l104.002702-104.042611-26.002211-26.001187c-4.787026-4.787026-4.787026-12.555967 0-17.34197l17.382902-17.310248c4.787026-4.79112 12.523221-4.79112 17.310248 0l26.000164 25.996071 312.043922-312.039829c9.573029-9.613962 9.537214-25.117051 0-34.654264L834.056462 348.675214 834.056462 348.675214 834.056462 348.675214zM503.341295 694.013427l-17.347087 17.34197c-4.787026 4.78805-12.56006 4.751211-17.347087 0l-52.000328-51.999304c-4.790096-4.822842-4.790096-12.55699 0-17.347087l17.346063-17.309224c4.787026-4.787026 12.55699-4.822842 17.344017 0l52.003398 51.999304C508.128321 681.452343 508.128321 689.223331 503.341295 694.013427L503.341295 694.013427 503.341295 694.013427zM399.337569 590.005608l-17.347087 17.314341c-4.786003 4.787026-12.55699 4.787026-17.346063 0l-52.000328-52.003398c-4.787026-4.787026-4.787026-12.522198 0-17.310248l17.347087-17.34197c4.787026-4.787026 12.55699-4.787026 17.347087 0l51.999304 51.999304C404.087757 577.412802 404.124596 585.219605 399.337569 590.005608L399.337569 590.005608 399.337569 590.005608zM399.337569 590.005608" ></path>
		</symbol>
		<symbol id="icon-send" viewBox="0 0 1024 1024">
			<title>send</title>
			<path d="M369.091599 882.243175l37.369791 3.861169c0 0 17.454289-165.578655 18.267166-178.178258 0.835458-12.577023 7.654598-25.808864 13.75118-31.566748 6.119162-5.825623 464.536979-440.873208 464.536979-440.873208s-59.836825 196.603484-109.467519 359.585447c-34.569879 113.509327-64.172172 210.693363-65.097949 213.786814-1.761235 5.803043-5.915943 7.925557-11.064168 5.599824-6.209482-2.709592-234.921632-100.571025-234.921632-100.571025l-15.783374 35.224697c0 0 217.106064 93.458346 238.760221 102.42258 23.86699 9.844851 51.03065-3.38699 59.046527-30.75387 6.70624-22.602514 184.839338-606.022845 187.66183-616.590254 2.777332-10.522249 9.122293-25.154046-7.993297-35.744035-12.735083-7.812657-30.257111 4.448247-30.257111 4.448247l-4.064388-10.34161c0 0-799.781257 327.025182-828.367453 338.834487-28.518456 11.831885-30.460331 42.676075-8.557795 52.362867 21.970276 9.686792 243.276207 107.503065 243.276207 107.503065l15.399515-34.705358L112.67387 530.380066 859.234223 224.331643c0 0-423.735039 402.013142-441.166748 418.361014-17.454289 16.393032-28.157178 34.16344-30.57323 57.849791C385.100772 724.161058 369.091599 882.243175 369.091599 882.243175L369.091599 882.243175zM369.091599 882.243175" ></path>
		</symbol>
		<symbol id="icon-coupon" viewBox="0 0 1224 1224">
			<title>coupon</title>
			<path d="M1114.559 175.621h-887.742c-18.851 0-34.133 15.282-34.133 34.133v101.262h-101.663c-18.851 0-34.133 15.282-34.133 34.133v478.741c0 18.851 15.282 34.133 34.133 34.133h887.741c18.851 0 34.133-15.282 34.133-34.133v-101.262h101.664c18.851 0 34.133-15.282 34.133-34.133v-478.741c0-18.851-15.282-34.133-34.133-34.133zM125.154 379.284h63.553c-10.030 27.28-36.272 54.662-63.553 64.692 0 0 0-64.692 0-64.692zM125.154 789.759v-63.554c27.28 10.030 54.661 36.273 64.69 63.554h-64.69zM944.628 789.759h-63.553c10.030-27.28 36.272-55.801 63.553-65.829v65.829zM944.628 653.111c-64.997 13.515-120.857 71.649-134.37 136.647h-549.595c-13.515-64.999-70.51-120.859-135.509-134.371v-140.593c64.997-13.515 120.857-70.512 134.371-135.509h548.009c5.559 33.987 22.654 64.668 47.452 88.268 24.268 23.097 55.429 41.347 89.642 46.465v139.094zM944.628 444.517c-32.703-8.099-58.194-34.334-67.207-65.233h67.207v65.233zM1080.426 654.364h-67.531v-309.213c0-18.851-15.282-34.133-34.133-34.133h-717.811v-67.129h819.475v410.475zM532.502 448.64c-76.292 0-138.362 62.069-138.362 138.361 0 76.293 62.069 138.362 138.362 138.362s138.361-62.069 138.361-138.362-62.068-138.361-138.361-138.361zM532.502 657.096c-38.651 0-70.095-31.444-70.095-70.095s31.444-70.094 70.095-70.094 70.094 31.444 70.094 70.094c0 38.652-31.444 70.095-70.094 70.095z"></path>
			<!--<path d="M536.865829 701.389418c-100.726076 14.20963-193.839777-59.172681-207.566406-163.600055-13.713326-104.430444 57.08002-200.967104 157.823492-215.179804 100.724029-14.210653 193.85308 59.174728 207.567429 163.616428C708.408787 590.641081 637.605208 687.166485 536.865829 701.389418L536.865829 701.389418zM671.560554 489.482147c-11.981892-91.225701-93.305059-155.308205-181.2746-142.901641-88.002286 12.437264-149.84068 96.736205-137.857764 187.951673 11.991102 91.200118 93.307106 155.294902 181.306322 142.887314C621.702006 664.995533 683.547563 580.684312 671.560554 489.482147L671.560554 489.482147zM525.786493 583.209832l2.25025 17.064654c0.413416 3.204995-1.845021 6.309706-4.923126 6.737448-3.093455 0.434905-6.072299-1.939165-6.509251-5.113461l-2.226714-17.080004c-23.029506 1.856277-41.358967-8.319479-50.216705-21.199835-1.110287-1.703805-1.449002-2.591011-1.639337-3.966335-0.542352-4.088108 2.108011-7.709589 6.072299-8.261151 2.635013-0.375553 5.022387 0.677429 6.615675 2.772136 8.612145 10.840906 22.623253 18.84009 41.954531 16.107863 24.165376-3.406586 36.475749-15.357779 33.838689-35.394115-5.596462-42.565445-85.999676-10.813277-93.081978-64.786539-2.563382-19.575848 7.955182-38.22765 35.548634-44.451398l-2.275833-17.303085c-0.426719-3.173273 1.861394-6.282077 4.939499-6.725168 3.079128-0.428765 6.071276 1.928932 6.486738 5.133927l2.272763 17.302061c18.633383-1.24741 34.513048 5.558599 44.781926 17.330714 1.055029 1.232061 1.683339 2.537799 1.89107 4.131087 0.535189 4.102435-2.12029 7.719822-6.079462 8.275477-1.966795 0.278339-4.025687-0.122797-6.093788-2.13564-7.695263-7.498788-19.49296-15.579837-37.936007-12.976546-23.067368 3.261277-30.311353 16.33299-28.602432 29.310559 4.967128 37.810141 85.863576 9.911744 93.091188 64.791655C569.433572 559.418986 554.956859 576.996316 525.786493 583.209832L525.786493 583.209832zM862.881974 210.974016l67.609841-9.553587 38.992059 296.634977L862.881974 210.974016 862.881974 210.974016zM910.540414 228.66391l-15.273868 2.14792 24.093744 64.885799L910.540414 228.66391 910.540414 228.66391zM93.476463 822.563198 54.503846 525.976316 161.123143 813.024961 93.476463 822.563198 93.476463 822.563198zM113.455493 795.335067l15.283078-2.148943-24.097838-64.88273L113.455493 795.335067 113.455493 795.335067zM471.688387 769.186524 978.519668 566.933123l16.856923 128.344087L471.688387 769.186524 471.688387 769.186524zM959.384865 600.49859 666.859485 717.240431l302.233486-42.676985L959.384865 600.49859 959.384865 600.49859zM45.464983 457.082226 28.606013 328.737116l523.70253-73.92364L45.464983 457.082226 45.464983 457.082226zM64.612065 423.517783l292.512077-116.741841L54.877353 349.45088 64.612065 423.517783 64.612065 423.517783zM173.627944 914.071332l-39.581484-106.620319 21.778003-8.686846 31.210839 84.026742 378.043079-150.872173 8.40646 22.586414L173.627944 914.071332 173.627944 914.071332zM90.467943 622.775966l-21.778003 8.710382L0.890788 448.943872l49.952692-19.936051 8.391111 22.584368-28.17469 11.243065L90.467943 622.775966 90.467943 622.775966zM973.143217 595.007529l-8.374738-22.584368 28.172643-11.243065-59.395762-159.972435 21.735024-8.67866 67.825758 182.542476L973.143217 595.007529 973.143217 595.007529zM868.17042 225.25323l-31.206746-84.046185-378.060475 150.873196-8.385994-22.570042 399.836431-159.581532 39.61116 106.619296L868.17042 225.25323 868.17042 225.25323zM933.546384 401.207661 868.17042 225.25323l21.795399-8.705266 65.315588 175.981037L933.546384 401.207661 933.546384 401.207661zM573.484841 754.506173l-8.40646-22.586414 399.691121-159.495574 8.374738 22.584368L573.484841 754.506173 573.484841 754.506173zM134.04646 807.451012 68.68994 631.486348l21.778003-8.710382 65.35652 175.987177L134.04646 807.451012 134.04646 807.451012zM59.234591 451.592188l-8.391111-22.584368 399.674749-159.497621 8.385994 22.570042L59.234591 451.592188 59.234591 451.592188z" ></path>-->
		</symbol>
		<symbol id="icon-quit" viewBox="0 0 1124 1324">
			<title>quit</title>
			<path d="M511.989654 1023.999974C257.386307 1023.999974 50.206841 816.8412 50.206841 562.217161c0-172.72887 95.220204-329.691162 248.458106-409.662063 14.00784-7.283249 31.38832-1.882885 38.712951 12.145645 7.324631 14.049222 1.882885 31.367629-12.166336 38.712951C190.968042 273.452893 107.562427 410.944908 107.562427 562.217161c0 223.008117 181.439801 404.406536 404.427227 404.406536 223.008117 0 404.427227-181.41911 404.427227-404.406536 0-155.182861-86.529963-294.247396-225.801409-362.941676-14.21475-7.014265-20.049626-24.187835-13.056051-38.402585 7.034956-14.235441 24.229217-20.008244 38.402585-13.056051 159.052087 78.439764 257.81046 237.202176 257.81046 414.400313C973.793159 816.8412 766.634384 1023.999974 511.989654 1023.999974zM511.989654 548.747288c-15.828652 0-28.677793-12.849141-28.677793-28.677793L483.311862 28.677793C483.332553 12.849141 496.181694 0 511.989654 0c15.849343 0 28.698484 12.849141 28.698484 28.677793l0 491.391703C540.688138 535.877457 527.838997 548.747288 511.989654 548.747288z" ></path>
		</symbol>
		<symbol id="icon-time" viewBox="0 0 1124 1124">
			<title>time</title>
			<path d="M512 64C264 64 64 264 64 512c0 248 200 448 448 448 248 0 448-200 448-448C960 264 760 64 512 64zM513.6 913.6C291.2 913.6 112 734.4 112 512 112 291.2 291.2 112 513.6 112 734.4 112 915.2 291.2 915.2 512 915.2 734.4 734.4 913.6 513.6 913.6zM528 208 496 208 496 526.4 496 558.4 528 558.4 766.4 558.4 766.4 526.4 528 526.4Z"></path>
		</symbol>
		<symbol id="icon-star" viewBox="0 0 1124 1124">
			<title>star</title>
			<path d="M512 736.853333l263.68 159.146667-69.973333-299.946667 232.96-201.813333-306.773333-26.026667-119.893333-282.88-119.893333 282.88-306.773333 26.026667 232.96 201.813333-69.973333 299.946667z" ></path>
		</symbol>

		<symbol id="icon-pay-coupon" viewBox="0 0 1024 1324">
			<title>pay-coupon</title>
			<path d="M1024 102.4c0-56.32-46.08-102.4-102.4-102.4L102.4 0C46.08 0 0 46.08 0 102.4l0 819.2c0 56.32 46.08 102.4 102.4 102.4l819.2 0c56.32 0 102.4-46.08 102.4-102.4L1024 102.4zM783.36 755.712c0 20.992-6.656 40.448-20.992 54.784-14.336 14.336-31.744 24.064-51.712 24.064l-90.112 0c-12.8 0-26.624-13.312-26.624-26.112l0-1.536c0-12.288 13.824-23.552 26.624-23.552l90.112 0c7.68 0 13.824-2.048 19.456-7.68 5.632-5.12 7.168-12.288 7.168-19.968l0-93.184c0-7.68-1.536-14.336-7.168-19.968-5.632-5.12-11.264-7.68-19.456-7.68l-296.96 0c-0.512 0-0.512 4.096-1.536 6.144-29.184 81.92-80.896 136.704-158.208 180.736-5.632 3.584-11.264 4.096-17.92 2.56-6.656-2.048-11.264-6.656-14.336-12.288l-0.512-1.536c-6.656-11.264-1.536-25.088 8.704-30.72 64-35.84 107.008-78.848 133.12-145.408L287.232 634.368c-12.288 0-26.112-10.752-26.112-24.064L261.12 609.28c0-12.288 13.824-20.48 26.112-20.48l423.424 0c10.752 0 17.92 0 27.136 5.12 28.672 11.264 45.056 36.864 45.056 68.096L782.848 755.712zM830.464 588.288l-0.512 0.512c-7.168 11.264-21.504 14.336-32.768 7.168L606.208 471.04 401.92 471.04c-20.992 25.6-45.056 49.664-71.68 71.168-28.16 21.504-60.928 41.472-97.28 59.392-6.656 2.048-12.288 3.072-18.432 0-6.656-2.048-10.752-6.656-13.824-12.8l-0.512-1.536c-4.096-10.752 0.512-24.576 12.288-30.208 33.792-15.872 64-33.792 88.064-53.248 12.8-10.24 25.088-22.528 36.352-32.768L224.768 471.04c-12.8 0-25.088-10.24-25.088-23.552l0-1.536c0-12.8 12.288-26.112 25.088-26.112l152.576 0c17.408-25.6 32.768-51.2 46.592-81.92L231.936 337.92c-12.8 0-27.136-11.776-27.136-25.6l0-0.512c0-12.8 14.336-25.088 27.136-25.088L261.12 286.72 261.12 226.304c0-12.8 10.24-21.504 23.04-21.504l1.536 0c13.824 0 21.504 8.704 21.504 21.504L307.2 286.72l135.68 0c8.704-20.48 16.384-49.152 23.552-76.288 4.096-12.8 17.408-19.456 29.184-15.872l2.048 1.024c12.8 3.584 19.968 15.36 16.384 28.672-6.656 22.016-13.824 47.616-19.968 62.976L721.92 287.232 721.92 226.304c0-12.8 9.728-21.504 23.04-21.504l0.512 0c12.8 0 22.016 8.704 22.016 21.504L767.488 286.72l29.696 0c12.288 0 21.504 12.288 21.504 25.088L818.688 312.32c0 13.824-9.728 25.6-21.504 25.6L477.184 337.92c-0.512 0-1.536 1.536-2.048 3.072C463.36 370.176 450.048 399.36 434.688 419.84l368.64 0c12.8 0 20.992 13.312 20.992 26.112l0 1.536c0 13.824-8.192 23.552-20.992 23.552l-109.568 0 129.536 84.48c5.12 3.584 8.704 8.704 10.24 14.848C834.56 577.024 833.536 582.656 830.464 588.288z"></path>
		</symbol>
		<symbol id="icon-pay-wechat" viewBox="0 0 1024 1124">
			<title>pay-wechat</title>
			<path d="M866.027106 64.676022 157.971871 64.676022c-51.453882 0-93.164866 41.712007-93.164866 93.164866l0 708.055235c0 51.453882 41.712007 93.164866 93.164866 93.164866l708.055235 0c51.453882 0 93.164866-41.712007 93.164866-93.164866L959.191972 157.840888C959.192995 106.387006 917.480988 64.676022 866.027106 64.676022zM440.825984 654.453433c-42.840714 0-83.018785-9.208732-117.813243-25.263383l-62.926168 45.547359 16.429181-73.518411c-46.279023-35.58445-75.207889-85.989443-75.207889-141.9295 0-107.784842 107.235326-195.161888 239.518119-195.161888 105.795535 0 195.507766 55.915497 227.217978 133.436058-3.069919-0.113587-6.147-0.195451-9.248641-0.195451-113.448842 0-205.744921 76.914764-205.744921 171.45393 0 30.154787 9.423627 58.499345 25.895787 83.143629C466.528366 653.583622 453.803553 654.453433 440.825984 654.453433zM824.683489 749.245356l-61.104683-38.35761c-25.762757 11.072173-55.095829 17.368576-86.24834 17.368576-66.533322 0-124.846426-28.606525-157.489894-71.53422l-0.002047-0.00307c-2.166339-2.847861-4.214998-5.758144-6.149047-8.728802-0.075725-0.118704-0.223081-0.356111-0.223081-0.356111-1.755993-2.713808-3.400446-5.477758-4.954849-8.28571-0.212848-0.38374-0.428765-0.763386-0.636496-1.147126-3.166109-5.847172-5.886057-11.885701-8.133238-18.0941-0.221034-0.610914-0.428765-1.225921-0.64059-1.839905-0.912789-2.64627-1.743714-5.319146-2.480494-8.022721-0.134053-0.490164-0.287549-0.974188-0.415462-1.467421-0.807389-3.105734-1.497097-6.247284-2.065032-9.42158-0.113587-0.630357-0.193405-1.2689-0.296759-1.902326-0.419556-2.564405-0.756223-5.14723-1.014096-7.750521-0.088004-0.876973-0.177032-1.752924-0.245593-2.632967-0.25071-3.208065-0.420579-6.432503-0.420579-9.691733 0-83.327824 82.902128-150.879336 185.169303-150.879336 5.491061 0 10.912537 0.234337 16.280802 0.615007l0.00614 0c94.632287 6.725168 168.882362 71.411423 168.882362 150.264329 0 42.565445-21.666462 80.987522-56.461943 108.417245L824.683489 749.245356zM375.942231 364.838336m-25.762757 0a25.176 25.176 0 1 0 51.525514 0 25.176 25.176 0 1 0-51.525514 0ZM516.443196 364.838336m-25.762757 0a25.176 25.176 0 1 0 51.525514 0 25.176 25.176 0 1 0-51.525514 0ZM624.89421 528.370853m-23.003923 0a22.48 22.48 0 1 0 46.007847 0 22.48 22.48 0 1 0-46.007847 0ZM736.623897 528.370853m-23.003923 0a22.48 22.48 0 1 0 46.007847 0 22.48 22.48 0 1 0-46.007847 0Z"></path>
		</symbol>
		<symbol id="icon-pay-cash" viewBox="0 0 1324 1124">
			<title>pay-cash</title>
			<path d="M912.319461 542.148462c-7.894513-0.029556-15.793692 0.157112-23.677316-0.093334-3.495364-0.104223-5.425825 0.986231-7.118284 4.165814-17.581041 32.978064-35.317639 65.839459-53.03246 98.764634 0.040445 0.052889-0.169557-0.157112-0.303336-0.407559-17.143926-32.587616-34.326742-65.133231-51.329111-97.778403-1.877572-3.629143-4.089591-4.931154-8.109181-4.772486-8.18696 0.314225-16.366142 0.08089-24.553102 0.104223-1.512013 0-3.010026 0.186668-5.310713 0.332892 21.466853 36.90432 42.490368 73.061966 63.919887 109.902508l-5.699605 0c-14.031233 0-28.065577-0.063778-42.098365 0.104223-1.446679 0.012445-4.07248 1.382901-4.111369 2.205797-0.315781 7.555399-0.186668 15.123242-0.186668 23.232424l61.385865 0 0 32.914285-61.042085 0 0 25.318442 61.31742 0 0 5.296713c0 13.017002 0.133779 26.05267-0.076223 39.075894-0.063778 3.697588 1.113787 4.766264 4.713374 4.649596 7.452731-0.250447 14.914796-0.250447 22.364416 0 3.635365 0.116668 4.778708-1.037565 4.725819-4.704041-0.168001-13.021668-0.063778-26.057337-0.052889-39.074339 0-1.697126 0.144668-3.389585 0.250447-5.531603l58.574952 0 0-25.282664-58.458284 0 0-32.848951 58.837843 0c0-7.234952-0.186668-13.950343 0.063778-20.66729 0.132223-3.582475-0.928675-4.830042-4.651151-4.766264-11.693212 0.199113-23.384869 0.063778-35.078082 0.063778-3.296251 0-6.611168 0-10.829872 0.012445 21.704855-36.958765 42.966372-73.156856 64.590337-109.972509C915.13193 542.276018 913.725696 542.148462 912.319461 542.148462zM1031.807385-1.4e-05l-728.006308 0c-81.398261 0-147.996838 66.598577-147.996838 147.996838l0 728.006308c0 81.398261 66.598577 147.996838 147.996838 147.996838l728.006308 0c81.398261 0 147.996838-66.598577 147.996838-147.996838l0-728.006308C1179.804223 66.598563 1113.205646-1.4e-05 1031.807385-1.4e-05zM391.294057 157.030013c3.442474-2.362909 7.376508-3.325807 11.826991-2.823358 4.428705 0.483782 9.107857 1.429568 14.021899 2.852914 4.924932 1.429568 9.720751 2.846691 14.389014 4.263815 4.66204 1.424901 8.967855 1.658237 12.90189 0.712451 6.884949-1.417123 12.047882-3.902923 15.490356-7.462065 3.440919-3.559142 9.341192-7.945847 17.696153-13.163225 6.3965-3.7987 13.51945-5.099155 21.39063-3.915367 7.869624 1.19001 13.769897 3.67581 17.696153 7.474509 1.972462 2.375354 4.061591 4.38826 6.267388 6.044941 2.210464 1.652014 4.551595 3.192028 7.006283 4.621596 2.467132 1.907128 5.162934 3.565364 8.116959 4.982488 0.986231 0 2.222908-0.472893 3.692921-1.417123 2.941581-1.896239 6.886504-5.217379 11.798991-9.960309 5.915829-5.217379 11.814547-9.003634 17.713265-11.378987 5.898718-2.378465 13.769897-1.669126 23.596427 2.124907 4.912487 1.423346 8.85741 3.431585 11.797436 6.044941 2.958692 2.614912 5.783606 5.1116 8.490296 7.480731 2.708246 2.362909 5.65916 4.386705 8.85741 6.038719 3.190472 1.669126 7.252063 2.498244 12.16455 2.498244 4.924932 0 9.10319-0.706228 12.545664-2.129574 3.440919-1.417123 6.768281-2.730024 9.960309-3.915367 3.190472-1.19001 6.401167-2.019129 9.593194-2.492022 3.190472-0.471337 7.001616 0 11.430321 1.417123 4.931154 1.891572 8.239849 4.609151 9.960309 8.168293 1.720459 3.55292 2.204241 7.230285 1.470013 11.027429-0.734229 3.7987-2.456244 7.578732-5.162934 11.377432-2.70669 3.7987-6.015385 6.87406-9.960309 9.247858-9.341192 5.688716-16.470365 11.501877-21.389074 17.422373-4.912487 5.928274-9.837419 12.218995-14.749906 18.858163-2.473355 3.308695-5.1816 7.107395-8.123182 11.378987-2.957137 4.263815-5.665382 8.535407-8.121626 12.807-2.95247 5.215823-6.149164 10.198311-9.593194 14.942796l-152.694656 0c-3.442474-5.694938-6.886504-11.144097-10.328978-16.35992-2.957137-4.744486-6.149164-9.487416-9.591639-14.231901-3.442474-4.744486-6.401167-9.0083-8.85741-12.807-4.912487-7.122951-10.444091-13.402783-16.593255-18.858163-6.133609-5.449158-12.166105-10.308756-18.064823-14.581904-6.390278-4.270037-10.817427-10.089421-13.273671-17.439484C382.204868 168.525669 384.409109 162.248948 391.294057 157.030013zM538.832003 784.527895c-38.853448 0-73.279746-5.332491-103.269562-15.999028-29.996038-10.671204-55.446703-24.557768-76.353551-41.625472-20.89907-17.078592-37.498547-36.170091-49.793765-57.274496-12.298329-21.098183-20.404399-42.090587-24.349322-62.955434-4.428705-23.246424-5.029155-45.539284-1.837127-66.87858 3.192028-21.348629 8.974078-41.385914 17.329039-60.12741 8.354961-18.735273 18.805274-35.918089 31.350938-51.579558 12.550331-15.659913 26.186449-29.641368 40.942577-41.980142 12.783666-10.906095 24.349322-21.221073 34.676745-30.941824 10.327423-9.720751 18.928164-18.618606 25.813113-26.682676 8.361184-9.016078 15.729914-17.540596 22.131081-25.609333l165.993216 0c5.898718 7.591177 13.269004 15.88236 22.126414 24.896882 7.368731 8.068737 16.465698 17.201482 27.287792 27.395126 10.81276 10.198311 23.363091 20.998626 37.61677 32.377614 11.797436 9.954086 23.980652 21.687743 36.513872 35.205638 0.420004 0.462004 0.816674 0.973786 1.236677 1.43579C647.060718 459.74997 575.871657 554.389234 575.789212 665.819311c-0.012445 40.785465 9.748751 79.212686 26.699787 113.498984C582.67416 782.65499 561.575977 784.527895 538.832003 784.527895zM833.053885 887.511232c-122.452839 0.054445-221.940812-99.352639-221.877034-221.690365 0.076223-122.284837 99.330861-221.520808 221.545698-221.503697 122.440394 0.012445 221.835033 99.483307 221.667032 221.849034C1054.202913 788.169482 954.914052 887.458343 833.053885 887.511232z" ></path>
		</symbol>

		<symbol id="icon-tel" viewBox="0 0 1024 1024">
			<title>tel</title>
			<path d="M729.2213 695.569876c-1.656733-3.123131-40.888246-76.570933-66.585511-107.379613-11.405771-13.629415-23.946388-26.975375-40.651862-26.975375-14.292518 0-26.833135 9.701966-41.266869 20.964474-14.954597 11.642155-23.614837 12.872169-26.833135 14.528901-0.757247-0.851391-72.643484-85.231173-91.573625-123.044384-11.92561-23.899316-3.076058-32.085766 34.689057-52.388161 40.698934-21.911032 36.014238-42.497906 28.016077-56.553017-2.27174-3.927449-62.326511-93.939509-91.762937-123.374912-8.281617-8.234545-18.930141-12.682857-30.760584-12.682857-33.458019 0-66.302055 38.853913-69.756737 42.687218-24.419156 27.164686-59.72322 108.847034-30.477129 205.909673 29.294187 97.204879 90.721211 186.79022 187.830923 273.867438 33.553187 30.145577 69.897953 45.431725 108.136859 45.431725 60.386322 0 106.575294-38.758746 119.258151-50.590212C739.680513 725.242685 734.379787 703.094246 729.2213 695.569876M412.098709 262.549671c27.022447 26.975375 85.847204 112.727411 86.556355 115.945709 1.13587 5.300726-1.750877 9.038864-15.47546 16.184611-9.228175 4.874007-19.781532 10.553357-29.388331 17.60496l-91.99932-132.461871c12.06785-10.316973 28.631084-21.201881 40.698934-21.201881C406.420383 258.622222 409.401274 259.805164 412.098709 262.549671M510.060835 728.886679c-92.850711-83.33908-151.439084-168.523181-179.12361-260.285095-23.614837-78.32181-0.14224-149.498896 16.800641-173.918052l91.146906 131.136689c-12.020778 14.528901-17.037025 33.93181-3.360538 61.285808 20.538779 41.077557 92.567255 125.504412 96.494705 129.953747 1.846044 1.940189 8.991792 7.950066 22.195511 7.950066 3.691065 0 7.52437-0.615007 11.405771-1.561565l87.408769 130.094964c-15.616676 7.335059-34.168194 13.06148-54.80214 13.06148C567.607482 766.604722 537.982768 753.921865 510.060835 728.886679M697.087439 724.106816c-4.40124 4.116761-13.676487 12.020778-26.359344 19.8767l-86.367043-128.344087c5.53711-3.786233 9.085936-6.199189 14.33959-9.93835 6.247284-4.354168 19.308765-14.528901 23.283286-14.528901 4.448312 0 5.441942 1.608637 17.60496 16.184611 23.661909 28.441772 63.320141 98.530061 63.793932 100.753705C704.281281 712.323445 705.653535 716.061582 697.087439 724.106816M512.479931 65.567321c-246.89718 0-447.045639 200.148459-447.045639 447.045639s200.148459 447.045639 447.045639 447.045639c246.895133 0 447.045639-200.148459 447.045639-447.045639S759.375064 65.567321 512.479931 65.567321zM512.479931 923.267784c-226.798423 0-410.654824-183.856401-410.654824-410.654824S285.681508 101.958136 512.479931 101.958136s410.654824 183.856401 410.654824 410.654824S739.278353 923.267784 512.479931 923.267784z"></path>
		</symbol>
		<symbol id="icon-notice" viewBox="0 0 1124 1124">
			<title>notice</title>
			<path d="M560.63 138.65c-13.14-6.18-28.65-4.14-39.81 5.13l-215.19 179.1-171.66-0.69c-9.87 0-19.38 3.9-26.37 10.89-7.050 6.99-11.040 16.5-11.040 26.46l-0.78 299.31c0 9.96 3.9 19.5 10.92 26.52 6.99 7.080 16.53 11.010 26.49 11.010h173.55l214.11 178.44c6.84 5.7 15.39 8.64 23.94 8.64 5.4 0 10.8-1.17 15.87-3.54 13.14-6.15 21.54-19.35 21.54-33.87v-673.53c0-14.49-8.4-27.69-21.57-33.87v0zM705.71 325.73c-18.45-8.73-40.38-0.78-49.35 17.58-8.94 18.42-1.2 40.71 17.1 49.92 2.37 1.23 58.41 30.36 58.41 113.31 0 88.62-52.41 117.99-54.15 118.95-18.48 9.24-25.98 31.74-16.74 50.22 6.6 13.14 19.77 20.7 33.54 20.7 5.61 0 11.34-1.26 16.68-3.93 3.9-1.98 95.49-49.38 95.49-185.94 0-131.76-96.87-178.86-100.98-180.81v0zM822.2 215.84c-17.25-11.070-40.14-6.030-51.42 11.19-11.22 17.22-6.3 40.38 10.86 51.72 4.050 2.67 99.9 67.98 99.9 230.55 0 162.93-91.95 228.3-95.61 230.79-17.22 11.49-21.84 34.68-10.38 51.9 7.2 10.8 19.080 16.65 31.17 16.65 7.11 0 14.34-2.070 20.73-6.3 5.25-3.48 128.91-88.26 128.91-293.070 0-205.2-128.67-289.92-134.16-293.43v0zM822.2 215.84z" ></path>
		</symbol>
		<symbol id="icon-search" viewBox="0 0 1124 1124">
			<title>search</title>
			<path d="M746.3013 656.0273c0 0-14.2549 18.8622-33.3428 37.3497l219.773 215.354 36.4768-34.1019L746.3013 656.0273zM824.3495 422.5726c0 213.7901-164.6831 374.2772-368.8031 374.2772C242.705 793.761 88.3684 626.1566 88.3684 422.8624c0-196.3739 166.1232-361.9626 367.1781-361.9626C659.6664 60.8998 824.3495 228.6441 824.3495 422.5726zM454.2033 109.9626c-174.9625 0-316.7702 141.9208-316.7702 318.9128 0 176.993 141.8077 319.8931 316.7702 319.8931 174.9865 0 321.0815-142.9001 321.0815-319.8931C775.2848 251.8824 629.1899 109.9626 454.2033 109.9626z" ></path>
		</symbol>
		<symbol id="icon-close" viewBox="0 0 1124 1124">
			<title>close</title>
			<path d="M544.244622 512.068267l280.712533 280.689778c8.897422 8.874667 8.897422 23.278933 0 32.176356s-23.278933 8.897422-32.176356 0L512.068267 544.267378 232.516267 823.819378c-8.874667 8.874667-23.233422 8.874667-32.085333 0-8.851911-8.851911-8.851911-23.210667 0-32.062578l279.574756-279.574756L199.042844 231.2192c-8.897422-8.897422-8.897422-23.301689 0-32.176356 8.874667-8.897422 23.278933-8.897422 32.176356 0l280.962844 280.962844L792.189156 199.998578c8.851911-8.851911 23.210667-8.851911 32.039822 0 8.874667 8.851911 8.874667 23.233422 0 32.085333L544.244622 512.068267z" fill="#272636"></path>
		</symbol>

	</defs>
</svg>
