<?xml version="1.0" encoding="utf-8"?>
<!DOCTYPE svg PUBLIC "-//W3C//DTD SVG 1.1//EN" "http://www.w3.org/Graphics/SVG/1.1/DTD/svg11.dtd">
<svg version="1.1" id="图形" xmlns="http://www.w3.org/2000/svg" xmlns:xlink="http://www.w3.org/1999/xlink" x="0px" y="0px" width="15px" height="15px" viewBox="0 0 1024 1024" enable-background="new 0 0 1024 1024" xml:space="preserve">
  <path fill="#3db5e6" d="M597.788875 300.020466l343.150384-343.156524c23.694655-23.683399 23.694655-62.098313 0-85.792968-23.683399-23.677259-62.093197-23.677259-85.787852 0l-343.150384 343.16164-343.155501-343.16164c-23.694655-23.677259-62.098313-23.677259-85.787852 0-23.688515 23.694655-23.688515 62.10957 0 85.792968l343.150384 343.156524-343.150384 343.16164c-23.688515 23.677259-23.688515 62.099337 0 85.787852 23.688515 23.683399 62.093197 23.683399 85.787852 0l343.155501-343.16164 343.150384 343.16164c23.694655 23.683399 62.104453 23.683399 85.787852 0 23.694655-23.688515 23.694655-62.10957 0-85.787852L597.788875 300.020466z" transform="translate(0, 812) scale(1, -1)"/>
</svg>
